<?xml version="1.0" standalone="no"?>
<!DOCTYPE svg PUBLIC "-//W3C//DTD SVG 20010904//EN"
 "http://www.w3.org/TR/2001/REC-SVG-20010904/DTD/svg10.dtd">
<svg version="1.0" xmlns="http://www.w3.org/2000/svg"
 width="4096.000000pt" height="4096.000000pt" viewBox="0 0 4096.000000 4096.000000"
 preserveAspectRatio="xMidYMid meet">
<metadata>
Created by potrace 1.14, written by Peter Selinger 2001-2017
</metadata>
<g transform="translate(0.000000,4096.000000) scale(0.100000,-0.100000)"
fill="#000000" stroke="none">
<path d="M7679 35336 c-2 -2 -65 -7 -139 -10 -74 -4 -151 -9 -170 -10 -19 -2
-71 -7 -115 -10 -44 -4 -93 -9 -110 -11 -16 -2 -52 -7 -80 -10 -27 -3 -63 -8
-80 -10 -16 -3 -52 -7 -80 -10 -27 -2 -68 -7 -90 -11 -22 -4 -47 -8 -55 -9 -8
-1 -31 -5 -50 -9 -19 -3 -48 -8 -65 -11 -146 -24 -443 -86 -575 -119 -114 -29
-166 -43 -285 -77 -371 -106 -810 -270 -1150 -429 -125 -58 -390 -191 -450
-226 -27 -16 -63 -36 -80 -44 -16 -8 -37 -19 -45 -26 -8 -6 -40 -25 -70 -41
-128 -69 -622 -388 -640 -414 -3 -3 -19 -15 -35 -25 -29 -18 -184 -133 -195
-144 -3 -3 -36 -30 -75 -59 -59 -46 -229 -185 -245 -201 -3 -3 -25 -23 -50
-44 -283 -247 -658 -626 -849 -860 -9 -10 -23 -26 -31 -35 -31 -35 -210 -259
-266 -336 -32 -44 -61 -82 -64 -85 -43 -40 -460 -683 -460 -710 0 -5 -4 -10
-9 -10 -5 0 -11 -6 -13 -12 -2 -7 -29 -60 -61 -118 -81 -147 -69 -124 -156
-297 -59 -119 -151 -312 -151 -319 0 -2 -11 -28 -25 -59 -14 -30 -36 -80 -50
-110 -14 -31 -25 -58 -25 -60 0 -6 -67 -179 -85 -220 -57 -128 -226 -681 -281
-917 -2 -10 -6 -26 -8 -35 -18 -75 -65 -295 -70 -323 -3 -19 -10 -60 -16 -90
-6 -30 -13 -66 -15 -80 -2 -14 -6 -43 -10 -65 -3 -22 -8 -51 -10 -65 -12 -67
-32 -216 -40 -296 -4 -33 -8 -75 -10 -94 -4 -33 -9 -79 -21 -205 -2 -27 -8
-102 -12 -165 -10 -154 -9 -14491 1 -14650 4 -69 9 -139 12 -155 2 -17 6 -69
10 -117 3 -48 7 -95 9 -105 2 -10 7 -47 10 -83 4 -36 9 -76 10 -90 2 -14 7
-48 10 -76 4 -28 9 -61 11 -74 3 -13 7 -42 10 -65 8 -54 43 -258 50 -287 2
-13 7 -34 9 -48 24 -134 107 -477 162 -665 89 -304 246 -739 341 -945 14 -30
43 -95 64 -143 49 -110 206 -424 248 -495 17 -29 31 -54 31 -56 0 -6 140 -247
176 -304 19 -29 34 -55 34 -58 0 -2 5 -10 10 -17 6 -7 60 -86 120 -177 142
-215 336 -480 446 -610 158 -186 210 -247 219 -256 5 -7 42 -47 80 -90 140
-157 494 -504 636 -624 29 -25 62 -54 74 -65 18 -17 107 -92 140 -117 6 -5 28
-23 50 -42 197 -167 666 -492 930 -646 647 -377 1185 -608 1905 -820 41 -12
82 -23 90 -25 8 -2 35 -8 60 -15 25 -7 52 -14 60 -16 8 -1 92 -21 185 -43 94
-22 186 -42 206 -45 20 -3 42 -8 50 -10 12 -4 31 -8 114 -21 11 -2 78 -13 149
-24 144 -24 164 -27 291 -41 50 -6 101 -12 115 -15 14 -2 59 -6 100 -10 41 -3
93 -8 115 -10 22 -2 96 -8 165 -12 165 -11 25758 -10 25923 0 70 5 139 10 155
12 15 2 65 6 112 10 47 4 99 9 115 11 17 2 55 6 85 10 55 5 68 7 150 19 25 4
59 9 75 11 17 2 41 6 55 9 14 2 43 7 64 10 73 10 271 47 361 67 50 10 101 22
115 24 74 15 463 119 575 154 72 22 137 42 145 44 78 21 466 167 655 248 154
65 250 110 430 200 168 84 199 101 385 206 197 111 556 339 598 379 7 7 17 13
21 13 4 0 17 8 29 18 11 9 46 35 77 57 60 43 269 202 326 248 108 89 250 209
269 226 9 9 57 52 106 96 165 148 527 517 654 669 14 16 39 46 56 65 17 20 39
47 50 59 10 13 29 36 42 50 56 65 275 355 359 475 50 73 97 137 102 144 6 7
11 14 11 17 0 3 24 40 53 84 28 43 68 105 87 136 19 32 44 72 55 89 22 34 138
237 197 347 43 78 167 325 198 395 13 28 40 87 61 133 22 45 39 84 39 87 0 4
72 178 91 220 23 50 97 257 155 430 104 313 186 625 248 940 49 252 66 352 95
590 22 174 36 324 48 520 11 172 10 14469 0 14650 -5 77 -10 154 -12 170 -2
17 -6 66 -10 110 -13 136 -13 143 -30 265 -3 19 -7 52 -10 74 -2 21 -7 57 -11
80 -4 22 -8 50 -9 61 -1 11 -5 36 -8 55 -4 19 -9 49 -12 65 -3 17 -10 57 -15
90 -16 95 -20 119 -27 140 -3 11 -7 29 -9 40 -1 11 -9 50 -18 86 -8 37 -17 78
-20 90 -5 28 -67 273 -95 374 -48 174 -189 603 -221 670 -6 11 -21 49 -34 85
-130 351 -444 976 -647 1285 -21 33 -42 67 -46 75 -25 48 -298 444 -358 519
-8 9 -52 66 -100 126 -47 61 -91 117 -98 125 -19 24 -111 134 -122 146 -5 6
-37 41 -70 79 -129 147 -156 176 -350 370 -178 178 -291 285 -403 380 -98 84
-192 163 -223 188 -57 46 -374 286 -436 329 -105 73 -450 298 -457 298 -2 0
-43 24 -92 54 -49 29 -120 70 -159 91 -38 21 -93 50 -120 65 -56 31 -277 144
-285 145 -3 1 -50 23 -105 49 -127 61 -391 173 -520 221 -55 20 -109 41 -120
46 -36 16 -407 137 -501 163 -99 28 -191 53 -239 66 -55 14 -249 59 -284 65
-19 3 -38 8 -41 10 -4 3 -25 7 -46 11 -22 3 -59 10 -84 16 -25 5 -58 12 -75
14 -16 3 -50 9 -75 14 -25 5 -63 12 -85 15 -23 3 -50 7 -60 9 -19 4 -109 16
-150 21 -27 4 -111 14 -155 20 -19 3 -60 7 -90 10 -30 3 -71 8 -90 10 -19 2
-75 7 -125 11 -49 3 -110 9 -135 12 -49 6 -25774 14 -25781 8z"/>
</g>
</svg>
